<svg xmlns="http://www.w3.org/2000/svg" width="20" height="20" viewBox="0 0 20 20" fill="none">
  <path d="M16.7001 5.68333L11.9001 2.325C10.5918 1.40833 8.58345 1.45833 7.32511 2.43333L3.15011 5.69167C2.31678 6.34167 1.65845 7.675 1.65845 8.725V14.475C1.65845 16.6 3.38345 18.3333 5.50845 18.3333H14.4918C16.6168 18.3333 18.3418 16.6083 18.3418 14.4833V8.83333C18.3418 7.70833 17.6168 6.325 16.7001 5.68333ZM10.6251 15C10.6251 15.3417 10.3418 15.625 10.0001 15.625C9.65845 15.625 9.37511 15.3417 9.37511 15V12.5C9.37511 12.1583 9.65845 11.875 10.0001 11.875C10.3418 11.875 10.6251 12.1583 10.6251 12.5V15Z" fill="white"/>
</svg>